# File created by Blade
# Date/Time:  Thu Jan 22 15:49:58 2015
# Frame Rate: 120.000 fps
#------------------------------------------------------
:FULLY-SPECIFIED
:DEGREES
1987
root 3.237853 37.124269 4.077092 -6.040488 1.870531 3.084892
RightUpLeg 13.535521 -7.708583 -6.382069
RightLeg -4.714222 -0.000000 0.000000
RightFoot -12.503247 -15.140896 17.076063
RightToeBase 14.339542 -0.000000 -0.000000
LeftUpLeg 10.250789 3.290023 1.275394
LeftLeg -1.656705 -0.000000 0.000000
LeftFoot -5.712230 5.790001 -16.402616
LeftToeBase 8.887736 -0.000000 -0.000000
Spine 4.501737 -1.456911 -2.401796
RightShoulder 7.211739 8.965119 -37.875597
RightArm 95.113963 -20.654555 42.327445
RightForeArm 34.350598 0.000000 114.109651
RightHand 12.653961 -0.000000 -0.950744
RightHandThumb1 -24.326973 -0.000000 -32.862282
LeftShoulder -6.967093 32.179399 5.029735
LeftArm 85.275539 7.909414 -50.300836
LeftForeArm -13.875163 0.000000 82.207001
LeftHand -16.632237 -0.000000 -10.249000
LeftHandThumb1 -26.253704 0.000000 33.147579
Head -1.557352 -7.656840 8.280518
1988
root 3.240311 37.121835 4.071452 -6.088549 1.897181 3.094240
RightUpLeg 13.578161 -7.756845 -6.409851
RightLeg -4.707550 -0.000000 0.000000
RightFoot -12.515378 -15.127350 17.043274
RightToeBase 14.312470 -0.000000 -0.000000
LeftUpLeg 10.300645 3.274834 1.262788
LeftLeg -1.685753 -0.000000 0.000000
LeftFoot -5.692941 5.785613 -16.375943
LeftToeBase 8.861042 -0.000000 -0.000000
Spine 4.578332 -1.709807 -2.429902
RightShoulder 7.647292 7.803176 -37.163239
RightArm 94.082831 -21.440079 42.091844
RightForeArm 34.479283 -0.000000 113.160714
RightHand 12.466634 -0.000000 -1.300427
RightHandThumb1 -24.326973 -0.000000 -32.862282
LeftShoulder -6.794389 30.895841 5.492280
LeftArm 83.757119 9.143048 -49.763092
LeftForeArm -13.828080 -0.000000 80.675627
LeftHand -16.657713 -0.000000 -10.205130
LeftHandThumb1 -26.253704 0.000000 33.147579
Head -1.455003 -7.256883 8.108946
1989
root 3.242922 37.118793 4.065649 -6.125422 1.916469 3.106811
RightUpLeg 13.612629 -7.800258 -6.440833
RightLeg -4.704719 -0.000000 0.000000
RightFoot -12.561524 -15.083175 17.083632
RightToeBase 14.401337 -0.000000 -0.000000
LeftUpLeg 10.339906 3.266233 1.247617
LeftLeg -1.712480 -0.000000 0.000000
LeftFoot -5.694110 5.776815 -16.374074
LeftToeBase 8.885772 -0.000000 -0.000000
Spine 4.651461 -1.979142 -2.461630
RightShoulder 8.092379 6.781325 -36.457906
RightArm 92.892669 -22.324484 41.908873
RightForeArm 34.584590 -0.000000 112.184624
RightHand 12.370765 -0.000000 -1.432209
RightHandThumb1 -24.326973 -0.000000 -32.862282
LeftShoulder -6.547659 29.674899 6.014733
LeftArm 82.171857 10.414673 -49.440247
LeftForeArm -13.816510 -0.000000 79.179417
LeftHand -16.613506 -0.000000 -10.328907
LeftHandThumb1 -26.253704 0.000000 33.147579
Head -1.359188 -6.885841 7.888048
1990
root 3.247446 37.115985 4.060338 -6.150986 1.927404 3.116619
RightUpLeg 13.633791 -7.859954 -6.473573
RightLeg -4.702225 -0.000000 0.000000
RightFoot -12.576541 -15.033806 17.071602
RightToeBase 14.434647 -0.000000 -0.000000
LeftUpLeg 10.370480 3.253591 1.229457
LeftLeg -1.740231 -0.000000 0.000000
LeftFoot -5.694456 5.786609 -16.347279
LeftToeBase 8.891660 -0.000000 -0.000000
Spine 4.723641 -2.043184 -2.493768
RightShoulder 8.352091 5.577411 -35.712558
RightArm 91.668872 -23.187403 41.743572
RightForeArm 34.762346 0.000000 111.176308
RightHand 12.478640 -0.000000 -1.342661
RightHandThumb1 -24.326973 -0.000000 -32.862282
LeftShoulder -6.134859 28.304545 6.635140
LeftArm 80.560147 11.858110 -49.186399
LeftForeArm -13.738850 -0.000000 77.598680
LeftHand -16.673702 -0.000000 -10.128375
LeftHandThumb1 -26.253704 0.000000 33.147579
Head -1.329649 -6.685841 7.754199
1991
root 3.252710 37.118674 4.054165 -6.127400 1.931402 3.050286
RightUpLeg 13.602850 -7.934427 -6.421574
RightLeg -4.708960 -0.000000 0.000000
RightFoot -12.494557 -15.011535 17.080890
RightToeBase 14.380848 -0.000000 -0.000000
LeftUpLeg 10.345812 3.247853 1.283043
LeftLeg -1.763475 -0.000000 0.000000
LeftFoot -5.684853 5.793537 -16.314928
LeftToeBase 8.866240 -0.000000 -0.000000
Spine 4.775144 -1.877340 -2.566593
RightShoulder 8.248479 4.017873 -34.621102
RightArm 90.561022 -23.865136 41.301908
RightForeArm 35.090550 -0.000000 110.226696
RightHand 12.528765 -0.000000 -1.354816
RightHandThumb1 -24.326973 -0.000000 -32.862282
LeftShoulder -6.318361 26.774547 6.751920
LeftArm 79.795759 13.530987 -48.146357
LeftForeArm -13.743416 -0.000000 75.282750
LeftHand -16.538404 -0.000000 -10.177213
LeftHandThumb1 -26.253704 0.000000 33.147579
Head -1.452893 -6.502755 8.149513
1992
root 3.258330 37.116950 4.047939 -6.175079 1.955331 3.052634
RightUpLeg 13.649942 -8.025331 -6.459260
RightLeg -4.708026 -0.000000 0.000000
RightFoot -12.475946 -14.940272 17.053268
RightToeBase 14.392287 -0.000000 -0.000000
LeftUpLeg 10.387235 3.206551 1.269001
LeftLeg -1.774964 -0.000000 0.000000
LeftFoot -5.689699 5.811572 -16.304009
LeftToeBase 8.876773 -0.000000 -0.000000
Spine 4.887656 -2.093888 -2.614053
RightShoulder 8.533529 2.646924 -33.783142
RightArm 89.350033 -24.485710 41.133040
RightForeArm 35.416900 -0.000000 109.094402
RightHand 12.650184 -0.000000 -1.012067
RightHandThumb1 -24.326973 -0.000000 -32.862282
LeftShoulder -6.429531 26.981057 6.726723
LeftArm 79.685116 13.843284 -47.290744
LeftForeArm -13.709454 -0.000000 73.447680
LeftHand -16.432076 -0.000000 -10.403361
LeftHandThumb1 -26.253704 0.000000 33.147579
Head -1.420533 -6.074816 8.004345
